<!DOCTYPE svg PUBLIC "-//W3C//DTD SVG 20010904//EN" "http://www.w3.org/TR/2001/REC-SVG-20010904/DTD/svg10.dtd">
<svg version="1.0" xmlns="http://www.w3.org/2000/svg" width="300px" height="263px" viewBox="0 0 3000 2630" preserveAspectRatio="xMidYMid meet">
<g id="layer101" fill="#4740f6" stroke="none">
 <path d="M1437 2586 c-14 -13 -29 -35 -31 -48 -3 -12 -33 -237 -66 -498 -101 -787 -151 -1164 -155 -1169 -3 -2 -5 280 -5 628 0 573 -2 636 -17 661 -32 55 -96 65 -143 23 l-31 -28 -104 -710 c-58 -390 -109 -726 -114 -745 -6 -22 -9 157 -10 498 l-1 534 -29 29 c-40 39 -89 40 -130 2 -29 -27 -34 -46 -136 -528 -58 -275 -110 -509 -115 -520 -5 -12 -9 106 -9 313 l-1 334 -29 29 c-36 35 -86 39 -124 9 -30 -24 -36 -41 -117 -338 -64 -232 -65 -252 -20 -252 26 0 34 16 60 113 13 48 27 90 32 93 4 3 8 -163 8 -369 0 -362 1 -375 20 -400 40 -50 129 -42 158 15 9 18 197 879 219 1006 17 98 23 -48 23 -600 l0 -606 31 -26 c19 -16 43 -26 63 -26 36 0 82 30 90 58 3 9 51 328 106 707 56 380 105 710 110 735 4 25 8 -256 9 -623 1 -744 -1 -725 66 -752 30 -13 39 -13 69 -1 19 8 41 25 49 38 10 15 51 309 121 853 58 457 107 835 109 840 1 6 4 -326 7 -737 l5 -746 24 -26 c42 -45 109 -41 150 8 7 8 62 295 122 637 59 342 110 627 113 633 2 6 5 -315 5 -714 1 -805 -3 -757 67 -786 29 -12 39 -12 68 0 19 8 40 24 46 36 6 11 58 256 115 543 58 287 108 533 112 547 4 14 10 -251 13 -588 l5 -614 28 -24 c39 -33 88 -32 126 4 28 25 37 56 137 472 58 245 110 452 115 460 5 9 9 -138 9 -341 l0 -356 24 -26 c13 -14 36 -29 50 -33 33 -8 83 12 101 40 7 12 45 137 84 280 75 268 76 286 30 286 -23 0 -32 -16 -59 -115 -12 -44 -26 -84 -31 -89 -5 -6 -9 143 -9 368 l0 378 -29 29 c-39 39 -88 40 -127 2 -27 -26 -38 -64 -138 -485 -61 -251 -113 -455 -118 -452 -4 3 -8 293 -8 644 l0 638 -31 26 c-39 33 -88 34 -124 3 -25 -21 -33 -56 -138 -577 l-112 -555 -5 758 -5 759 -33 29 c-69 62 -152 19 -166 -86 -10 -79 -207 -1189 -211 -1194 -3 -2 -5 365 -5 817 l0 821 -31 36 c-39 44 -91 49 -132 11z"/>
 </g>
<g id="layer102" fill="#207af3" stroke="none">
 <path d="M1020 2183 l-31 -28 -104 -710 c-58 -390 -109 -726 -114 -745 -6 -22 -9 157 -10 498 l-1 534 -29 29 c-40 39 -89 40 -130 2 -29 -27 -34 -46 -136 -528 -58 -275 -110 -509 -115 -520 -5 -12 -9 106 -9 313 l-1 334 -29 29 c-36 35 -86 39 -124 9 -30 -24 -36 -41 -117 -338 -64 -232 -65 -252 -20 -252 26 0 34 16 60 113 13 48 27 90 32 93 4 3 8 -163 8 -369 0 -362 1 -375 20 -400 40 -50 129 -42 158 15 9 18 197 879 219 1006 17 98 23 -48 23 -600 l0 -606 31 -26 c19 -16 43 -26 63 -26 36 0 82 30 90 58 3 9 51 328 106 707 56 380 105 710 110 735 4 25 8 -256 9 -623 1 -744 -1 -725 66 -752 30 -13 40 -13 68 -2 17 8 39 22 47 32 21 25 221 1575 203 1568 -10 -4 -13 33 -14 173 l-1 179 -24 -180 c-13 -99 -49 -371 -79 -605 -31 -233 -58 -426 -60 -429 -3 -2 -5 280 -5 628 0 573 -2 636 -17 661 -32 55 -96 65 -143 23z"/>
 </g>
<g id="layer103" fill="#0a9cf1" stroke="none">
 <path d="M451 1169 c-52 -244 -98 -451 -102 -459 -5 -8 -9 135 -9 318 l0 334 -29 29 c-36 35 -86 39 -124 9 -30 -24 -36 -41 -117 -338 -64 -232 -65 -252 -20 -252 26 0 34 16 60 113 13 48 27 90 32 93 4 3 8 -163 8 -369 0 -362 1 -375 20 -400 40 -50 129 -42 158 15 9 18 197 879 219 1006 4 23 8 29 14 20 7 -10 9 -9 9 5 0 9 -4 17 -10 17 -6 0 -11 62 -12 151 l-3 151 -94 -443z"/>
 </g>

</svg>