<?xml version="1.0" standalone="no"?><!DOCTYPE svg PUBLIC "-//W3C//DTD SVG 1.1//EN" "http://www.w3.org/Graphics/SVG/1.1/DTD/svg11.dtd"><svg t="1611414009725" class="icon" viewBox="0 0 1024 1024" version="1.1" xmlns="http://www.w3.org/2000/svg" p-id="15741" xmlns:xlink="http://www.w3.org/1999/xlink" width="200" height="200"><defs><style type="text/css"></style></defs><path d="M479.744 692.4288h64.512a130.56 130.56 0 0 0 130.4576-130.4576V232.3456A130.56 130.56 0 0 0 544.256 102.4h-64.512a130.56 130.56 0 0 0-130.4576 129.9456v329.6256a130.56 130.56 0 0 0 130.4576 130.4576z m-99.7376-460.0832A99.84 99.84 0 0 1 479.744 133.12h64.512a99.84 99.84 0 0 1 99.7376 99.7376v329.1136a99.84 99.84 0 0 1-99.7376 99.7376h-64.512a99.84 99.84 0 0 1-99.7376-99.7376z" p-id="15742" fill="#496074"></path><path d="M806.4 529.1008A15.2576 15.2576 0 0 0 788.48 541.2864a281.6 281.6 0 0 1-552.96 0 15.36 15.36 0 1 0-30.1056 5.8368 312.9344 312.9344 0 0 0 283.136 252.3136v146.944a18.5344 18.5344 0 0 0 18.5344 18.432h10.24a18.5344 18.5344 0 0 0 18.5344-18.432V799.4368a312.9344 312.9344 0 0 0 282.7264-252.3136 15.2576 15.2576 0 0 0-12.1856-18.0224z" p-id="15743" fill="#496074"></path></svg>