<?xml version="1.0" standalone="no"?><!DOCTYPE svg PUBLIC "-//W3C//DTD SVG 1.1//EN" "http://www.w3.org/Graphics/SVG/1.1/DTD/svg11.dtd"><svg t="1611408573380" class="icon" viewBox="0 0 1024 1024" version="1.1" xmlns="http://www.w3.org/2000/svg" p-id="6838" xmlns:xlink="http://www.w3.org/1999/xlink" width="200" height="200"><defs><style type="text/css"></style></defs><path d="M427.52 907.946667c-9.096533 0-17.066667-3.413333-23.893333-10.257067-6.263467-6.263467-9.386667-13.9264-9.386667-23.057067s3.1232-17.066667 9.386667-23.876266c6.826667-6.263467 14.7968-9.403733 23.893333-9.403734 9.1136 0 16.776533 3.140267 23.04 9.403734 6.826667 6.8096 10.24 14.779733 10.24 23.876266s-3.413333 16.776533-10.24 23.057067a30.037333 30.037333 0 0 1-23.04 10.257067z" p-id="6839" fill="#496074"></path><path d="M597.333333 955.733333H256c-66.030933 0-102.4-36.369067-102.4-102.4V170.666667c0-66.030933 36.369067-102.4 102.4-102.4h341.333333c66.030933 0 102.4 36.369067 102.4 102.4v168.106666h153.6a17.066667 17.066667 0 0 1 17.066667 17.066667V604.16a17.066667 17.066667 0 0 1-17.066667 17.066667h-153.6V853.333333c0 66.030933-36.369067 102.4-102.4 102.4z m-409.6-126.293333V853.333333c0 47.223467 21.0432 68.266667 68.266667 68.266667h341.333333c47.223467 0 68.266667-21.0432 68.266667-68.266667v-23.893333H187.733333z m0-34.133333h477.866667V621.226667h-66.321067l-75.2128 75.195733A17.032533 17.032533 0 0 1 494.933333 684.373333v-63.146666h-67.413333a17.066667 17.066667 0 0 1-17.066667-17.066667V355.84a17.066667 17.066667 0 0 1 17.066667-17.066667H665.6V232.106667H187.733333v563.2z m256.853334-208.213334H512a17.066667 17.066667 0 0 1 17.066667 17.066667v38.997333l51.080533-51.063466a17.015467 17.015467 0 0 1 12.066133-5.000534H836.266667V372.906667H444.586667V587.093333zM187.733333 197.973333h477.866667V170.666667c0-47.223467-21.0432-68.266667-68.266667-68.266667H256c-47.223467 0-68.266667 21.0432-68.266667 68.266667v27.306666z" p-id="6840" fill="#496074"></path></svg>