<?xml version="1.0" standalone="no"?><!DOCTYPE svg PUBLIC "-//W3C//DTD SVG 1.1//EN" "http://www.w3.org/Graphics/SVG/1.1/DTD/svg11.dtd"><svg t="1611413933912" class="icon" viewBox="0 0 1178 1024" version="1.1" xmlns="http://www.w3.org/2000/svg" p-id="14175" xmlns:xlink="http://www.w3.org/1999/xlink" width="230.078125" height="200"><defs><style type="text/css"></style></defs><path d="M159.396226 318.792453A159.396226 159.396226 0 1 1 318.792453 159.396226 159.589434 159.589434 0 0 1 159.396226 318.792453z m0-280.150944A120.754717 120.754717 0 1 0 280.150943 159.396226 120.947925 120.947925 0 0 0 159.396226 38.641509zM159.396226 1024A159.396226 159.396226 0 1 1 318.792453 864.603774 159.589434 159.589434 0 0 1 159.396226 1024z m0-280.150943A120.754717 120.754717 0 1 0 280.150943 864.603774 120.947925 120.947925 0 0 0 159.396226 743.849057zM1019.169811 1024A159.396226 159.396226 0 1 1 1178.566038 864.603774a159.589434 159.589434 0 0 1-159.396227 159.396226z m0-280.150943A120.754717 120.754717 0 1 0 1139.924528 864.603774 120.947925 120.947925 0 0 0 1019.169811 743.849057zM584.45283 830.792453A120.754717 120.754717 0 1 1 705.207547 710.037736 120.947925 120.947925 0 0 1 584.45283 830.792453z m0-202.867925a82.113208 82.113208 0 1 0 82.113208 82.113208 82.209811 82.209811 0 0 0-82.113208-82.113208zM1019.169811 318.792453A159.396226 159.396226 0 1 1 1178.566038 159.396226 159.589434 159.589434 0 0 1 1019.169811 318.792453z m0-280.150944A120.754717 120.754717 0 1 0 1139.924528 159.396226 120.947925 120.947925 0 0 0 1019.169811 38.641509z" fill="#496074" p-id="14176"></path><path d="M960.531321 746.167547C710.13434 430.563019 625.026415 328.45283 597.687547 297.539623 571.121509 328.45283 488.621887 430.949434 247.209057 745.97434l-30.72-23.571321C334.442264 568.513208 425.056604 451.429434 485.820377 374.436226 583.100377 251.169811 585.515472 251.169811 597.49434 251.169811s14.297358 0 114.668679 123.073208c62.792453 77.283019 156.498113 193.980377 278.701887 347.773585z" fill="#496074" p-id="14177"></path><path d="M535.571321 640c-12.461887-15.649811-113.123019-135.245283-299.471698-357.433962l29.560754-24.923774c186.252075 221.609057 287.106415 341.977358 299.471698 357.433962zM639.420377 637.584906l-29.850566-24.633963C801.811321 378.686792 902.472453 257.159245 916.190189 241.509434l28.981132 25.213585C932.033208 281.986415 829.150189 406.798491 639.420377 637.584906z" fill="#496074" p-id="14178"></path></svg>